<svg width="24" height="24" viewBox="0 0 24 24" fill="none" xmlns="http://www.w3.org/2000/svg">
<path d="M2.07877 18.611C1.86392 19.1198 2.10221 19.7064 2.61099 19.9212C3.11978 20.1361 3.70639 19.8978 3.92123 19.389L2.07877 18.611ZM8 17.1517C8.55228 17.1517 9 16.704 9 16.1517C9 15.5994 8.55228 15.1517 8 15.1517V17.1517ZM8 6C9.65685 6 11 7.34315 11 9H13C13 6.23858 10.7614 4 8 4V6ZM11 9C11 10.6569 9.65685 12 8 12V14C10.7614 14 13 11.7614 13 9H11ZM8 12C6.34315 12 5 10.6569 5 9H3C3 11.7614 5.23858 14 8 14V12ZM5 9C5 7.34315 6.34315 6 8 6V4C5.23858 4 3 6.23858 3 9H5ZM3.92123 19.389C4.14611 18.8565 4.53149 18.3091 5.15058 17.8919C5.76583 17.4772 6.67031 17.1517 8 17.1517V15.1517C6.32969 15.1517 5.02315 15.566 4.03288 16.2333C3.04646 16.8981 2.43185 17.7748 2.07877 18.611L3.92123 19.389Z" fill="#00677F"/>
<path d="M13 15L17 11M17 11L21 15M17 11V21" stroke="#00677F" stroke-width="2" stroke-linecap="round" stroke-linejoin="round"/>
</svg>
